<svg width="500" height="500" viewBox="0 0 500 500" fill="none" xmlns="http://www.w3.org/2000/svg">
<mask id="mask0_100_14" style="mask-type:alpha" maskUnits="userSpaceOnUse" x="0" y="0" width="500" height="500">
<rect width="500" height="500" fill="#D9D9D9"/>
</mask>
<g mask="url(#mask0_100_14)">
<path d="M250 364.583C276.042 364.583 298.177 355.469 316.406 337.24C334.635 319.01 343.75 296.875 343.75 270.833C343.75 244.792 334.635 222.656 316.406 204.427C298.177 186.198 276.042 177.083 250 177.083C223.958 177.083 201.823 186.198 183.594 204.427C165.365 222.656 156.25 244.792 156.25 270.833C156.25 296.875 165.365 319.01 183.594 337.24C201.823 355.469 223.958 364.583 250 364.583ZM250 322.917C235.417 322.917 223.09 317.882 213.021 307.813C202.951 297.743 197.917 285.417 197.917 270.833C197.917 256.25 202.951 243.924 213.021 233.854C223.09 223.785 235.417 218.75 250 218.75C264.583 218.75 276.91 223.785 286.979 233.854C297.049 243.924 302.083 256.25 302.083 270.833C302.083 285.417 297.049 297.743 286.979 307.813C276.91 317.882 264.583 322.917 250 322.917ZM83.3333 437.5C71.875 437.5 62.066 433.42 53.9063 425.26C45.7465 417.101 41.6667 407.292 41.6667 395.833V145.833C41.6667 134.375 45.7465 124.566 53.9063 116.406C62.066 108.247 71.875 104.167 83.3333 104.167H148.958L187.5 62.5H312.5L351.042 104.167H416.667C428.125 104.167 437.934 108.247 446.094 116.406C454.254 124.566 458.333 134.375 458.333 145.833V395.833C458.333 407.292 454.254 417.101 446.094 425.26C437.934 433.42 428.125 437.5 416.667 437.5H83.3333ZM83.3333 395.833H416.667V145.833H332.292L294.271 104.167H205.729L167.708 145.833H83.3333V395.833Z" fill="#1C1B1F"/>
</g>
</svg>
